<?xml version="1.0" encoding="UTF-8" standalone="no"?>
<svg viewBox="0 0 841.97101 1067.9316" xmlns="http://www.w3.org/2000/svg" xmlns:xlink="http://www.w3.org/1999/xlink">
<defs>
<filter height="1.19231" id="filter6381" width="2.36368" x="-.68184" y="-.09616">
<feGaussianBlur stdDeviation="14.0609"/>
</filter>
<linearGradient id="linearGradient6180">
<stop offset="0" stop-color="#fff"/>
<stop offset="1" stop-color="#fff" stop-opacity="0"/>
</linearGradient>
<linearGradient gradientUnits="userSpaceOnUse" id="linearGradient7570" x1="1497.2683" x2="1461.639" y1="957.26312" y2="1007.1443">
<stop offset="0" stop-color="#f60"/>
<stop offset="1" stop-color="#f60" stop-opacity="0"/>
</linearGradient>
<linearGradient id="linearGradient6263">
<stop offset="0" stop-color="#e6e6e6"/>
<stop offset="1" stop-color="#e6e6e6" stop-opacity="0"/>
</linearGradient>
<linearGradient gradientUnits="userSpaceOnUse" id="linearGradient7582" x1="3149.5481" x2="3113.5537" y1="1547.2913" y2="1646.277">
<stop offset="0"/>
<stop offset=".32548" stop-color="#fff" stop-opacity=".51373"/>
<stop offset="1" stop-color="#fff" stop-opacity="0"/>
</linearGradient>
<linearGradient gradientUnits="userSpaceOnUse" id="linearGradient7592" x1="3199.0415" x2="3154.0479" y1="1425.8086" y2="1380.8151">
<stop offset="0" stop-color="#1a1a1a"/>
<stop offset="1" stop-color="#1a1a1a" stop-opacity="0"/>
</linearGradient>
<linearGradient gradientTransform="matrix(.84699,0,0,.94182,465.20891,95.29329)" gradientUnits="userSpaceOnUse" id="linearGradient7566" x1="3010.0684" x2="3019.0671" xlink:href="#linearGradient6180" y1="1376.3158" y2="1668.7738"/>
<linearGradient gradientTransform="matrix(.88551,0,0,.9516,307.1884,82.51654)" gradientUnits="userSpaceOnUse" id="linearGradient7572" x1="2501.6411" x2="2861.5896" xlink:href="#linearGradient6180" y1="1371.8164" y2="1947.7338"/>
<linearGradient gradientUnits="userSpaceOnUse" id="linearGradient7576" x1="3152.50019" x2="3462.77077" xlink:href="#linearGradient6180" y1="2443.64892" y2="2685.99615"/>
<linearGradient gradientUnits="userSpaceOnUse" id="linearGradient7578" x1="5156.2603" x2="5102.2686" xlink:href="#linearGradient6263" y1="2433.6641" y2="2514.6523"/>
<linearGradient gradientUnits="userSpaceOnUse" id="linearGradient7580" x1="3019.0671" x2="3190.0427" xlink:href="#linearGradient6180" y1="1457.3042" y2="1439.3066"/>
<linearGradient gradientTransform="matrix(.93159,0,0,1,327.68923,-4.49935)" gradientUnits="userSpaceOnUse" id="linearGradient7598" x1="4449.8618" x2="4242.8916" xlink:href="#linearGradient6180" y1="1547.2911" y2="2073.7158"/>
<linearGradient gradientTransform="matrix(.93159,0,0,1,332.18859,-6.509193e-7)" gradientUnits="userSpaceOnUse" id="linearGradient7600" x1="4449.8618" x2="4242.8916" xlink:href="#linearGradient6180" y1="1547.2911" y2="2073.7158"/>
<linearGradient gradientUnits="userSpaceOnUse" id="linearGradient7602" x1="5061.7744" x2="5120.2661" xlink:href="#linearGradient6263" y1="2532.6497" y2="2595.6411"/>
<linearGradient gradientUnits="userSpaceOnUse" id="linearGradient7606" x1="2425.28399" x2="2176.44905" xlink:href="#linearGradient6180" y1="1482.96203" y2="1774.41691"/>
<radialGradient cx="1486.9359" cy="889.21832" gradientTransform="matrix(-.02035,.99131,-1.19487,-.02453,2622.8057,-593.89822)" gradientUnits="userSpaceOnUse" id="radialGradient7564" r="133.62402">
<stop offset="0" stop-color="#0f0"/>
<stop offset="1" stop-color="#0f0" stop-opacity="0"/>
</radialGradient>
<radialGradient cx="1533.6852" cy="909.59375" gradientTransform="matrix(2.28619,-1.20794,.89218,1.68856,-2788.4722,1224.0804)" gradientUnits="userSpaceOnUse" id="radialGradient7568" r="133.62402">
<stop offset="0" stop-color="#f60"/>
<stop offset="1" stop-color="#803300"/>
</radialGradient>
<radialGradient cx="1480.2507" cy="910.68219" gradientTransform="matrix(.39381,-.72095,.88391,.48283,140.50334,1539.3325)" gradientUnits="userSpaceOnUse" id="radialGradient7574" r="133.62402">
<stop offset="0" stop-color="#0ff"/>
<stop offset="1" stop-color="#0ff" stop-opacity="0"/>
</radialGradient>
<radialGradient cx="3172.0452" cy="1365.7191" gradientTransform="matrix(.25901,.25136,-2.49269,2.56853,5754.7669,-2937.9015)" gradientUnits="userSpaceOnUse" id="radialGradient7590" r="247.47273">
<stop offset="0" stop-color="#b3b3b3"/>
<stop offset="1" stop-color="#b3b3b3" stop-opacity="0"/>
</radialGradient>
<radialGradient cx="1558.8595" cy="899.72345" gradientTransform="matrix(.71363,.47269,-.46225,.69786,835.92905,-460.94772)" gradientUnits="userSpaceOnUse" id="radialGradient7594" r="133.62402">
<stop offset="0" stop-color="#ff0"/>
<stop offset="1" stop-color="#ff0" stop-opacity="0"/>
</radialGradient>
<radialGradient cx="1585.3181" cy="904.91211" gradientTransform="matrix(.68534,-1.04292,1.2406,.81524,-635.42596,1760.0087)" gradientUnits="userSpaceOnUse" id="radialGradient7604" r="133.62402">
<stop offset="0" stop-color="#ff0"/>
<stop offset="1" stop-color="#808000"/>
</radialGradient>
</defs>
<g transform="matrix(.16786,-.48515,.48515,.16786,-1014.43355,2585.19373)">
<g transform="translate(1646.7639,-872.87483)">
<path d="m1657.5742,909.1936c0,68.52718-59.8255,124.0794-133.624,124.0794s-133.624-55.55222-133.624-124.0794 59.8255-124.07943 133.624-124.07943 133.624,55.55225 133.624,124.07943z" fill="#008000" transform="matrix(1.25613,-.10496,.10496,1.25613,1007.0302,575.73483)"/>
<path d="m1657.5742,909.1936c0,68.52718-59.8255,124.0794-133.624,124.0794s-133.624-55.55222-133.624-124.0794 59.8255-124.07943 133.624-124.07943 133.624,55.55225 133.624,124.07943z" fill="url(#radialGradient7564)" transform="matrix(1.25613,-.10496,.10496,1.25613,1007.0302,575.73483)"/>
<path d="m3024.1152,1419.3704c-3.6314.052-7.2775.2467-10.958.5886-56.6712,5.2653-103.0359,44.0552-122.1523,95.7123 11.5988,74.8896 77.2318,128.5131 151.8235,121.5829 56.6695-5.2651 103.0349-44.0281 122.1523-95.6829-11.0144-71.2096-70.8894-123.1989-140.8655-122.2009z" fill="url(#linearGradient7566)"/>
</g>
<g transform="matrix(-.52166,.02573,.00181,-.57358,6728.3139,2619.6766)">
<path d="m1657.5742,909.1936c0,68.52718-59.8255,124.0794-133.624,124.0794s-133.624-55.55222-133.624-124.0794 59.8255-124.07943 133.624-124.07943 133.624,55.55225 133.624,124.07943z" fill="#f60" transform="matrix(2.52564,0,0,2.52564,-1216.9303,-649.94357)"/>
<path d="m1657.5742,909.1936c0,68.52718-59.8255,124.0794-133.624,124.0794s-133.624-55.55222-133.624-124.0794 59.8255-124.07943 133.624-124.07943 133.624,55.55225 133.624,124.07943z" fill="url(#radialGradient7568)" transform="matrix(2.52564,0,0,2.52564,-1216.9303,-649.94357)"/>
<path d="m1657.5742,909.1936c0,68.52718-59.8255,124.0794-133.624,124.0794s-133.624-55.55222-133.624-124.0794 59.8255-124.07943 133.624-124.07943 133.624,55.55225 133.624,124.07943z" fill="url(#linearGradient7570)" opacity=".55" transform="matrix(2.52564,0,0,2.52564,-1216.9303,-649.94357)"/>
<path d="m2630.0201,1350.9852c-163.2681,2.0635-294.9845,134.7957-294.9845,298.2069 0,16.5307 1.3652,32.7326 3.9572,48.5315 54.5812,58.7469 132.5783,95.5463 219.1905,95.5463 165.0483,0 298.8308-133.5388 298.8308-298.2366 0-16.5203-1.3405-32.7123-3.9294-48.5018-54.5827-58.7643-132.5914-95.5463-219.2182-95.5463-1.2895,0-2.561-.017-3.8464,0z" fill="url(#linearGradient7572)" opacity=".55"/>
</g>
<g transform="translate(778.38839,-1471.2891)">
<path d="m1657.5742,909.1936c0,68.52718-59.8255,124.0794-133.624,124.0794s-133.624-55.55222-133.624-124.0794 59.8255-124.07943 133.624-124.07943 133.624,55.55225 133.624,124.07943z" fill="#008080" transform="matrix(1.54021,0,0,1.54021,970.96073,1191.1927)"/>
<path d="m1657.5742,909.1936c0,68.52718-59.8255,124.0794-133.624,124.0794s-133.624-55.55222-133.624-124.0794 59.8255-124.07943 133.624-124.07943 133.624,55.55225 133.624,124.07943z" fill="url(#radialGradient7574)" transform="matrix(1.54021,0,0,1.54021,970.96073,1191.1927)"/>
<path d="m3324.0705,2422.9401c-104.5095,0-189.2346,73.14-189.2346,163.3779 0,29.0382 8.7816,56.3075 24.1643,79.9388 27.8611,13.94 60.2431,21.9085 94.761,21.9085 104.5096,0 189.2347-73.1666 189.2347-163.4046 0-29.0174-8.7735-56.2658-24.1356-79.8854-27.8732-13.9566-60.2497-21.9352-94.7898-21.9352z" fill="url(#linearGradient7576)"/>
</g>
<g transform="translate(49.4929,-908.86968)">
<path d="m4935.4958,2330.3786 366.7901,242.579c22.4175,50.6741 25.4134,93.171-58.8207,98.9392l-410.4353-234.3181z"/>
<path d="m4935.4958,2330.3786 366.7901,242.579c22.4175,50.6741 25.4134,93.171-58.8207,98.9392l-410.4353-234.3181z" fill="url(#linearGradient7578)"/>
</g>
<g transform="translate(1556.7768,-571.41806)">
<path d="m3088.2618,1729.7805 173.8123-18.9675-85.18-399.3721c-39.2647-31.3459-76.1145-33.7907-108.4023,18.3639z"/>
<path d="m3088.2618,1729.7805 173.8123-18.9675-85.18-399.3721c-39.2647-31.3459-76.1145-33.7907-108.4023,18.3639z" fill="url(#linearGradient7580)"/>
<path d="m3127.0516,1326.8228 49.4929,350.9497" fill="none" filter="url(#filter6381)" stroke="#fff" stroke-width="20" transform="matrix(.99617,0,0,1.0436,16.57525,-69.99668)"/>
</g>
<g transform="translate(1228.3239,-386.94452)">
<path d="m3434.7742,1640.208-59.9326,137.5406-487.5494-210.0591c-12.0081-65.0172 10.5842-97.1372 74.286-90.1712z"/>
<path d="m3434.7742,1640.208-59.9326,137.5406-487.5494-210.0591c-12.0081-65.0172 10.5842-97.1372 74.286-90.1712z" fill="url(#linearGradient7582)"/>
</g>
<g transform="translate(2137.1935,-269.96129)">
<path d="m1657.5742,909.1936c0,68.52718-59.8255,124.0794-133.624,124.0794s-133.624-55.55222-133.624-124.0794 59.8255-124.07943 133.624-124.07943 133.624,55.55225 133.624,124.07943z" fill="#f60" transform="matrix(2.52564,0,0,2.52564,-1216.9303,-649.94357)"/>
<path d="m1657.5742,909.1936c0,68.52718-59.8255,124.0794-133.624,124.0794s-133.624-55.55222-133.624-124.0794 59.8255-124.07943 133.624-124.07943 133.624,55.55225 133.624,124.07943z" fill="url(#radialGradient7568)" transform="matrix(2.52564,0,0,2.52564,-1216.9303,-649.94357)"/>
<path d="m1657.5742,909.1936c0,68.52718-59.8255,124.0794-133.624,124.0794s-133.624-55.55222-133.624-124.0794 59.8255-124.07943 133.624-124.07943 133.624,55.55225 133.624,124.07943z" fill="url(#linearGradient7570)" opacity=".55" transform="matrix(2.52564,0,0,2.52564,-1216.9303,-649.94357)"/>
<path d="m2630.0201,1350.9852c-163.2681,2.0635-294.9845,134.7957-294.9845,298.2069 0,16.5307 1.3652,32.7326 3.9572,48.5315 54.5812,58.7469 132.5783,95.5463 219.1905,95.5463 165.0483,0 298.8308-133.5388 298.8308-298.2366 0-16.5203-1.3405-32.7123-3.9294-48.5018-54.5827-58.7643-132.5914-95.5463-219.2182-95.5463-1.2895,0-2.561-.017-3.8464,0z" fill="url(#linearGradient7572)" opacity=".55"/>
</g>
<g transform="translate(1363.3046,233.96645)">
<path d="m3279.678,1183.3038c106.0486-7.8416 88.7393,45.9958 93.0629,89.0166l-274.6514,389.3339-218.4955-202.3106z" stroke="#000" stroke-width="1.79857"/>
<path d="m3279.678,1183.3038c106.0486-7.8416 88.7393,45.9958 93.0629,89.0166l-274.6514,389.3339-218.4955-202.3106z" fill="url(#radialGradient7590)" stroke="#000" stroke-width="1.79857"/>
<path d="m3279.678,1183.3038c106.0486-7.8416 88.7393,45.9958 93.0629,89.0166l-274.6514,389.3339-218.4955-202.3106z" fill="url(#linearGradient7592)" opacity=".33" stroke="#000" stroke-width="1.79857"/>
</g>
<path d="m4647.4819,1408.2716c106.0486-7.8416 88.7393,45.9958 93.0629,89.0166l-274.6514,389.3339-218.4955-202.3106z" opacity=".22" stroke="#000" stroke-width="1.79857"/>
<path d="m1657.5742,909.1936c0,68.52718-59.8255,124.0794-133.624,124.0794s-133.624-55.55222-133.624-124.0794 59.8255-124.07943 133.624-124.07943 133.624,55.55225 133.624,124.07943z" fill="#808000" transform="matrix(2.79783,0,0,2.79783,-22.23999,-625.91707)"/>
<path d="m1657.5742,909.1936c0,68.52718-59.8255,124.0794-133.624,124.0794s-133.624-55.55222-133.624-124.0794 59.8255-124.07943 133.624-124.07943 133.624,55.55225 133.624,124.07943z" fill="url(#radialGradient7594)" transform="matrix(2.79783,0,0,2.79783,-22.23999,-625.91707)"/>
<path d="m1657.5742,909.1936c0,68.52718-59.8255,124.0794-133.624,124.0794s-133.624-55.55222-133.624-124.0794 59.8255-124.07943 133.624-124.07943 133.624,55.55225 133.624,124.07943z" fill="url(#radialGradient7594)" transform="matrix(2.79783,0,0,2.79783,-22.23999,-625.91707)"/>
<path d="m4258.0965,1584.1874c-105.6212,0-200.2634,46.8704-264.1353,120.875-.2073,4.9174-.3202,9.8443-.3202,14.8125 0,191.7276 155.9185,347.1563 348.2697,347.1563 105.6257,0 200.2924-46.8651 264.1644-120.875 .2064-4.9071.2911-9.8549.2911-14.8126 0-191.7276-155.9184-347.1562-348.2697-347.1562z" fill="url(#linearGradient7598)"/>
<path d="m4262.5959,1588.6867c-105.6212,0-200.2634,46.8704-264.1353,120.875-.2073,4.9174-.3202,9.8443-.3202,14.8125 0,191.7276 155.9185,347.1563 348.2697,347.1563 105.6257,0 200.2924-46.8651 264.1644-120.875 .2064-4.9071.2911-9.8549.2911-14.8126 0-191.7276-155.9184-347.1562-348.2697-347.1562z" fill="url(#linearGradient7600)"/>
<g transform="translate(-3.5522112e-7,-1511.7832)">
<path d="m4845.4011,2776.1545 435.6394-456.1631 115.5073,119.1739-494.6504,400.2213c-37.9646,2.3069-66.6985-6.6683-56.4963-63.2321z"/>
<path d="m4845.4011,2776.1545 435.6394-456.1631 115.5073,119.1739-494.6504,400.2213c-37.9646,2.3069-66.6985-6.6683-56.4963-63.2321z" fill="url(#linearGradient7602)"/>
</g>
<g transform="translate(3082.0581,-778.38839)">
<path d="m1657.5742,909.1936c0,68.52718-59.8255,124.0794-133.624,124.0794s-133.624-55.55222-133.624-124.0794 59.8255-124.07943 133.624-124.07943 133.624,55.55225 133.624,124.07943z" fill="#808000" transform="matrix(1.58396,0,0,1.58396,-139.49362,200.83702)"/>
<path d="m1657.5742,909.1936c0,68.52718-59.8255,124.0794-133.624,124.0794s-133.624-55.55222-133.624-124.0794 59.8255-124.07943 133.624-124.07943 133.624,55.55225 133.624,124.07943z" fill="url(#radialGradient7604)" transform="matrix(1.58396,0,0,1.58396,-139.49362,200.83702)"/>
<path d="m2274.7377,1462.4357c-35.0942,0-67.9346,9.3687-96.0859,25.6701-8.0128,20.4687-12.4325,42.67-12.4325,65.892 0,101.9011 84.5288,184.5029 188.7992,184.5029 35.0944,0 67.9347-9.3687 96.0861-25.6703 8.0128-20.4686 12.4324-42.6697 12.4324-65.8917 0-101.9012-84.5289-184.503-188.7993-184.503z" fill="url(#linearGradient7606)"/>
</g>
</g>
</svg>
