<?xml version="1.0" encoding="UTF-8" standalone="no"?>
<svg
   xmlns:dc="http://purl.org/dc/elements/1.1/"
   xmlns:cc="http://creativecommons.org/ns#"
   xmlns:rdf="http://www.w3.org/1999/02/22-rdf-syntax-ns#"
   xmlns:svg="http://www.w3.org/2000/svg"
   xmlns="http://www.w3.org/2000/svg"
   xmlns:xlink="http://www.w3.org/1999/xlink"
   xmlns:sodipodi="http://sodipodi.sourceforge.net/DTD/sodipodi-0.dtd"
   xmlns:inkscape="http://www.inkscape.org/namespaces/inkscape"
   viewBox="0 0 1067.9527 1067.9316"
   id="svg2"
   version="1.1"
   inkscape:version="0.48.4 r9939"
   width="100%"
   height="100%"
   sodipodi:docname="molecule_add.svg">
  <metadata
     id="metadata169">
    <rdf:RDF>
      <cc:Work
         rdf:about="">
        <dc:format>image/svg+xml</dc:format>
        <dc:type
           rdf:resource="http://purl.org/dc/dcmitype/StillImage" />
        <dc:title />
      </cc:Work>
    </rdf:RDF>
  </metadata>
  <sodipodi:namedview
     pagecolor="#ffffff"
     bordercolor="#666666"
     borderopacity="1"
     objecttolerance="10"
     gridtolerance="10"
     guidetolerance="10"
     inkscape:pageopacity="0"
     inkscape:pageshadow="2"
     inkscape:window-width="640"
     inkscape:window-height="480"
     id="namedview167"
     showgrid="false"
     inkscape:zoom="0.22098794"
     inkscape:cx="669.71891"
     inkscape:cy="547.20696"
     inkscape:window-x="0"
     inkscape:window-y="0"
     inkscape:window-maximized="0"
     inkscape:current-layer="svg2"
     units="cm" />
  <defs
     id="defs4">
    <filter
       height="1.19231"
       id="filter6381"
       width="2.3636799"
       x="-0.68184"
       y="-0.096160002"
       color-interpolation-filters="sRGB">
      <feGaussianBlur
         stdDeviation="14.0609"
         id="feGaussianBlur7" />
    </filter>
    <linearGradient
       id="linearGradient6180">
      <stop
         offset="0"
         stop-color="#fff"
         id="stop10" />
      <stop
         offset="1"
         stop-color="#fff"
         stop-opacity="0"
         id="stop12" />
    </linearGradient>
    <linearGradient
       gradientUnits="userSpaceOnUse"
       id="linearGradient7570"
       x1="1497.2683"
       x2="1461.639"
       y1="957.26312"
       y2="1007.1443">
      <stop
         offset="0"
         stop-color="#f60"
         id="stop15" />
      <stop
         offset="1"
         stop-color="#f60"
         stop-opacity="0"
         id="stop17" />
    </linearGradient>
    <linearGradient
       id="linearGradient6263">
      <stop
         offset="0"
         stop-color="#e6e6e6"
         id="stop20" />
      <stop
         offset="1"
         stop-color="#e6e6e6"
         stop-opacity="0"
         id="stop22" />
    </linearGradient>
    <linearGradient
       gradientUnits="userSpaceOnUse"
       id="linearGradient7582"
       x1="3149.5481"
       x2="3113.5537"
       y1="1547.2913"
       y2="1646.277">
      <stop
         offset="0"
         id="stop25" />
      <stop
         offset=".32548"
         stop-color="#fff"
         stop-opacity=".51373"
         id="stop27" />
      <stop
         offset="1"
         stop-color="#fff"
         stop-opacity="0"
         id="stop29" />
    </linearGradient>
    <linearGradient
       gradientUnits="userSpaceOnUse"
       id="linearGradient7592"
       x1="3199.0415"
       x2="3154.0479"
       y1="1425.8086"
       y2="1380.8151">
      <stop
         offset="0"
         stop-color="#1a1a1a"
         id="stop32" />
      <stop
         offset="1"
         stop-color="#1a1a1a"
         stop-opacity="0"
         id="stop34" />
    </linearGradient>
    <linearGradient
       gradientTransform="matrix(0.84699,0,0,0.94182,465.20891,95.29329)"
       gradientUnits="userSpaceOnUse"
       id="linearGradient7566"
       x1="3010.0684"
       x2="3019.0671"
       xlink:href="#linearGradient6180"
       y1="1376.3158"
       y2="1668.7738" />
    <linearGradient
       gradientTransform="matrix(0.88551,0,0,0.9516,307.1884,82.51654)"
       gradientUnits="userSpaceOnUse"
       id="linearGradient7572"
       x1="2501.6411"
       x2="2861.5896"
       xlink:href="#linearGradient6180"
       y1="1371.8164"
       y2="1947.7338" />
    <linearGradient
       gradientUnits="userSpaceOnUse"
       id="linearGradient7576"
       x1="3152.5002"
       x2="3462.7708"
       xlink:href="#linearGradient6180"
       y1="2443.6489"
       y2="2685.9961" />
    <linearGradient
       gradientUnits="userSpaceOnUse"
       id="linearGradient7578"
       x1="5156.2603"
       x2="5102.2686"
       xlink:href="#linearGradient6263"
       y1="2433.6641"
       y2="2514.6523" />
    <linearGradient
       gradientUnits="userSpaceOnUse"
       id="linearGradient7580"
       x1="3019.0671"
       x2="3190.0427"
       xlink:href="#linearGradient6180"
       y1="1457.3042"
       y2="1439.3066" />
    <linearGradient
       gradientTransform="matrix(0.93159,0,0,1,327.68923,-4.49935)"
       gradientUnits="userSpaceOnUse"
       id="linearGradient7598"
       x1="4449.8618"
       x2="4242.8916"
       xlink:href="#linearGradient6180"
       y1="1547.2911"
       y2="2073.7158" />
    <linearGradient
       gradientTransform="matrix(0.93159,0,0,1,332.18859,-6.5091932e-7)"
       gradientUnits="userSpaceOnUse"
       id="linearGradient7600"
       x1="4449.8618"
       x2="4242.8916"
       xlink:href="#linearGradient6180"
       y1="1547.2911"
       y2="2073.7158" />
    <linearGradient
       gradientUnits="userSpaceOnUse"
       id="linearGradient7602"
       x1="5061.7744"
       x2="5120.2661"
       xlink:href="#linearGradient6263"
       y1="2532.6497"
       y2="2595.6411" />
    <linearGradient
       gradientUnits="userSpaceOnUse"
       id="linearGradient7606"
       x1="2425.2839"
       x2="2176.449"
       xlink:href="#linearGradient6180"
       y1="1482.962"
       y2="1774.4169" />
    <radialGradient
       cx="1486.9359"
       cy="889.21832"
       gradientTransform="matrix(-0.02035,0.99131,-1.19487,-0.02453,2622.8057,-593.89822)"
       gradientUnits="userSpaceOnUse"
       id="radialGradient7564"
       r="133.62402">
      <stop
         offset="0"
         stop-color="#0f0"
         id="stop46" />
      <stop
         offset="1"
         stop-color="#0f0"
         stop-opacity="0"
         id="stop48" />
    </radialGradient>
    <radialGradient
       cx="1533.6852"
       cy="909.59375"
       gradientTransform="matrix(2.28619,-1.20794,0.89218,1.68856,-2788.4722,1224.0804)"
       gradientUnits="userSpaceOnUse"
       id="radialGradient7568"
       r="133.62402">
      <stop
         offset="0"
         stop-color="#f60"
         id="stop51" />
      <stop
         offset="1"
         stop-color="#803300"
         id="stop53" />
    </radialGradient>
    <radialGradient
       cx="1480.2507"
       cy="910.68219"
       gradientTransform="matrix(0.39381,-0.72095,0.88391,0.48283,140.50334,1539.3325)"
       gradientUnits="userSpaceOnUse"
       id="radialGradient7574"
       r="133.62402">
      <stop
         offset="0"
         stop-color="#0ff"
         id="stop56" />
      <stop
         offset="1"
         stop-color="#0ff"
         stop-opacity="0"
         id="stop58" />
    </radialGradient>
    <radialGradient
       cx="3172.0452"
       cy="1365.7191"
       gradientTransform="matrix(0.25901,0.25136,-2.49269,2.56853,5754.7669,-2937.9015)"
       gradientUnits="userSpaceOnUse"
       id="radialGradient7590"
       r="247.47273">
      <stop
         offset="0"
         stop-color="#b3b3b3"
         id="stop61" />
      <stop
         offset="1"
         stop-color="#b3b3b3"
         stop-opacity="0"
         id="stop63" />
    </radialGradient>
    <radialGradient
       cx="1558.8595"
       cy="899.72345"
       gradientTransform="matrix(0.71363,0.47269,-0.46225,0.69786,835.92905,-460.94772)"
       gradientUnits="userSpaceOnUse"
       id="radialGradient7594"
       r="133.62402">
      <stop
         offset="0"
         stop-color="#ff0"
         id="stop66" />
      <stop
         offset="1"
         stop-color="#ff0"
         stop-opacity="0"
         id="stop68" />
    </radialGradient>
    <radialGradient
       cx="1585.3181"
       cy="904.91211"
       gradientTransform="matrix(0.68534,-1.04292,1.2406,0.81524,-635.42596,1760.0087)"
       gradientUnits="userSpaceOnUse"
       id="radialGradient7604"
       r="133.62402">
      <stop
         offset="0"
         stop-color="#ff0"
         id="stop71" />
      <stop
         offset="1"
         stop-color="#808000"
         id="stop73" />
    </radialGradient>
    <filter
       color-interpolation-filters="sRGB"
       inkscape:collect="always"
       id="filter4292-6">
      <feGaussianBlur
         inkscape:collect="always"
         stdDeviation="2.1604423"
         id="feGaussianBlur4294-2" />
    </filter>
    <linearGradient
       inkscape:collect="always"
       xlink:href="#linearGradient5958-4"
       id="linearGradient8916-7"
       gradientUnits="userSpaceOnUse"
       gradientTransform="matrix(0,1,-1,0,-39.9985,140.0029)"
       x1="-86.120354"
       y1="-381.09921"
       x2="-56.357521"
       y2="-373.1243" />
    <linearGradient
       gradientTransform="matrix(0,1,-1,0,-39.9985,140.0029)"
       y2="-383.9971"
       x2="-12.0029"
       y1="-383.9971"
       x1="-84.002403"
       gradientUnits="userSpaceOnUse"
       id="linearGradient5958-4">
      <stop
         id="stop5960-4"
         style="stop-color:#008c00;stop-opacity:1"
         offset="0" />
      <stop
         id="stop5962-1"
         style="stop-color:#00bf00;stop-opacity:1"
         offset="1" />
    </linearGradient>
    <radialGradient
       inkscape:collect="always"
       xlink:href="#linearGradient4770-0"
       id="radialGradient8920-5"
       gradientUnits="userSpaceOnUse"
       cx="343.99899"
       cy="92"
       fx="343.99899"
       fy="92"
       r="36" />
    <linearGradient
       gradientTransform="matrix(0,1,-1,0,-39.9985,140.0029)"
       y2="-383.9971"
       x2="-12.0029"
       y1="-383.9971"
       x1="-84.002403"
       gradientUnits="userSpaceOnUse"
       id="linearGradient4770-0">
      <stop
         id="stop4772-5"
         style="stop-color:#e5ff00;stop-opacity:1"
         offset="0" />
      <stop
         id="stop4774-2"
         style="stop-color:#bff500;stop-opacity:0;"
         offset="1" />
    </linearGradient>
    <linearGradient
       inkscape:collect="always"
       xlink:href="#linearGradient4296-0"
       id="linearGradient4272-7"
       gradientUnits="userSpaceOnUse"
       x1="328.12448"
       y1="120.81158"
       x2="336.98077"
       y2="87.759453" />
    <linearGradient
       id="linearGradient4296-0">
      <stop
         id="stop4298-2"
         offset="0"
         style="stop-color:#00ff00;stop-opacity:1" />
      <stop
         id="stop4300-1"
         offset="1"
         style="stop-color:#006500;stop-opacity:1" />
    </linearGradient>
    <clipPath
       clipPathUnits="userSpaceOnUse"
       id="clipPath5163-8">
      <circle
         sodipodi:ry="36"
         sodipodi:rx="36"
         sodipodi:cy="92"
         sodipodi:cx="343.99899"
         style="fill:url(#linearGradient5167);fill-opacity:1"
         r="36"
         rx="8.0010004"
         cx="343.99899"
         cy="92"
         ry="8.0010004"
         id="circle5165-5" />
    </clipPath>
    <filter
       color-interpolation-filters="sRGB"
       inkscape:collect="always"
       id="filter7317-5">
      <feGaussianBlur
         inkscape:collect="always"
         stdDeviation="2.8805897"
         id="feGaussianBlur7319-6" />
    </filter>
    <linearGradient
       inkscape:collect="always"
       xlink:href="#linearGradient3711-6"
       id="linearGradient8927-6"
       gradientUnits="userSpaceOnUse"
       gradientTransform="matrix(0,0.7388168,-0.7388168,0,-1.5226652,63.255682)"
       x1="-80.00296"
       y1="-131.93112"
       x2="-45.096584"
       y2="-131.93112" />
    <linearGradient
       gradientTransform="matrix(0,1,-1,0,-39.9985,140.0029)"
       y2="-383.9975"
       x2="-23.516129"
       y1="-383.9971"
       x1="-84.002403"
       gradientUnits="userSpaceOnUse"
       id="linearGradient3711-6">
      <stop
         id="stop3713-0"
         style="stop-color:white;stop-opacity:1;"
         offset="0" />
      <stop
         id="stop3715-4"
         style="stop-color:white;stop-opacity:0;"
         offset="1" />
    </linearGradient>
    <linearGradient
       inkscape:collect="always"
       xlink:href="#linearGradient6740-1"
       id="linearGradient6930-3"
       gradientUnits="userSpaceOnUse"
       gradientTransform="translate(20.000035,-56.000003)"
       x1="102"
       y1="118"
       x2="102"
       y2="65.932846" />
    <linearGradient
       id="linearGradient6740-1">
      <stop
         style="stop-color:#004d00;stop-opacity:0;"
         offset="0"
         id="stop6742-9" />
      <stop
         id="stop6748-2"
         offset="0.5"
         style="stop-color:#004d00;stop-opacity:1;" />
      <stop
         style="stop-color:#004d00;stop-opacity:0;"
         offset="1"
         id="stop6744-4" />
    </linearGradient>
    <filter
       color-interpolation-filters="sRGB"
       inkscape:collect="always"
       id="filter5943-2">
      <feGaussianBlur
         inkscape:collect="always"
         stdDeviation="1.04"
         id="feGaussianBlur5945-7" />
    </filter>
    <linearGradient
       inkscape:collect="always"
       xlink:href="#linearGradient4296-0"
       id="linearGradient3289"
       gradientUnits="userSpaceOnUse"
       x1="328.12448"
       y1="120.81158"
       x2="336.98077"
       y2="87.759453" />
    <radialGradient
       inkscape:collect="always"
       xlink:href="#radialGradient7568"
       id="radialGradient3291"
       gradientUnits="userSpaceOnUse"
       gradientTransform="matrix(2.28619,-1.20794,0.89218,1.68856,-2788.4722,1224.0804)"
       cx="1533.6852"
       cy="909.59375"
       r="133.62402" />
    <linearGradient
       inkscape:collect="always"
       xlink:href="#linearGradient7570"
       id="linearGradient3293"
       gradientUnits="userSpaceOnUse"
       x1="1497.2683"
       y1="957.26312"
       x2="1461.639"
       y2="1007.1443" />
    <linearGradient
       inkscape:collect="always"
       xlink:href="#linearGradient6180"
       id="linearGradient3295"
       gradientUnits="userSpaceOnUse"
       gradientTransform="matrix(0.88551,0,0,0.9516,307.1884,82.51654)"
       x1="2501.6411"
       y1="1371.8164"
       x2="2861.5896"
       y2="1947.7338" />
    <radialGradient
       inkscape:collect="always"
       xlink:href="#radialGradient7568"
       id="radialGradient3297"
       gradientUnits="userSpaceOnUse"
       gradientTransform="matrix(2.28619,-1.20794,0.89218,1.68856,-2788.4722,1224.0804)"
       cx="1533.6852"
       cy="909.59375"
       r="133.62402" />
    <linearGradient
       inkscape:collect="always"
       xlink:href="#linearGradient7570"
       id="linearGradient3299"
       gradientUnits="userSpaceOnUse"
       x1="1497.2683"
       y1="957.26312"
       x2="1461.639"
       y2="1007.1443" />
    <radialGradient
       inkscape:collect="always"
       xlink:href="#radialGradient7594"
       id="radialGradient3301"
       gradientUnits="userSpaceOnUse"
       gradientTransform="matrix(0.71363,0.47269,-0.46225,0.69786,835.92905,-460.94772)"
       cx="1558.8595"
       cy="899.72345"
       r="133.62402" />
    <radialGradient
       inkscape:collect="always"
       xlink:href="#radialGradient7594"
       id="radialGradient3303"
       gradientUnits="userSpaceOnUse"
       gradientTransform="matrix(0.71363,0.47269,-0.46225,0.69786,835.92905,-460.94772)"
       cx="1558.8595"
       cy="899.72345"
       r="133.62402" />
    <linearGradient
       inkscape:collect="always"
       xlink:href="#linearGradient3711-6"
       id="linearGradient3309"
       gradientUnits="userSpaceOnUse"
       gradientTransform="matrix(0,5.9441741,-5.9441741,0,491.46612,463.64295)"
       x1="-80.00296"
       y1="-131.93112"
       x2="-45.096584"
       y2="-131.93112" />
    <linearGradient
       inkscape:collect="always"
       xlink:href="#linearGradient6740-1"
       id="linearGradient3315"
       gradientUnits="userSpaceOnUse"
       gradientTransform="translate(20.000035,-56.000003)"
       x1="102"
       y1="118"
       x2="102"
       y2="65.932846" />
    <linearGradient
       inkscape:collect="always"
       xlink:href="#linearGradient5958-4"
       id="linearGradient3327"
       gradientUnits="userSpaceOnUse"
       gradientTransform="matrix(0,1,-1,0,-39.9985,140.0029)"
       x1="-86.120354"
       y1="-381.09921"
       x2="-56.357521"
       y2="-373.1243" />
    <radialGradient
       inkscape:collect="always"
       xlink:href="#linearGradient4770-0"
       id="radialGradient3329"
       gradientUnits="userSpaceOnUse"
       cx="343.99899"
       cy="92"
       fx="343.99899"
       fy="92"
       r="36" />
    <linearGradient
       inkscape:collect="always"
       xlink:href="#linearGradient4296-0"
       id="linearGradient3331"
       gradientUnits="userSpaceOnUse"
       x1="328.12448"
       y1="120.81158"
       x2="336.98077"
       y2="87.759453" />
    <linearGradient
       inkscape:collect="always"
       xlink:href="#linearGradient3711-6"
       id="linearGradient3333"
       gradientUnits="userSpaceOnUse"
       gradientTransform="matrix(0,5.9441741,-5.9441741,0,491.46612,463.64295)"
       x1="-80.00296"
       y1="-131.93112"
       x2="-45.096584"
       y2="-131.93112" />
    <linearGradient
       inkscape:collect="always"
       xlink:href="#linearGradient6740-1"
       id="linearGradient3335"
       gradientUnits="userSpaceOnUse"
       gradientTransform="translate(20.000035,-56.000003)"
       x1="102"
       y1="118"
       x2="102"
       y2="65.932846" />
  </defs>
  <g
     transform="matrix(0.19060743,-0.48515,0.55089476,0.16786,-1113.8868,2580.6673)"
     id="g75">
    <g
       transform="translate(1646.7639,-872.87483)"
       id="g77">
      <path
         d="m 1657.5742,909.1936 c 0,68.52718 -59.8255,124.0794 -133.624,124.0794 -73.7985,0 -133.624,-55.55222 -133.624,-124.0794 0,-68.52718 59.8255,-124.07943 133.624,-124.07943 73.7985,0 133.624,55.55225 133.624,124.07943 z"
         transform="matrix(1.25613,-0.10496,0.10496,1.25613,1007.0302,575.73483)"
         id="path79"
         inkscape:connector-curvature="0"
         style="fill:#008000" />
      <path
         d="m 1657.5742,909.1936 c 0,68.52718 -59.8255,124.0794 -133.624,124.0794 -73.7985,0 -133.624,-55.55222 -133.624,-124.0794 0,-68.52718 59.8255,-124.07943 133.624,-124.07943 73.7985,0 133.624,55.55225 133.624,124.07943 z"
         transform="matrix(1.25613,-0.10496,0.10496,1.25613,1007.0302,575.73483)"
         id="path81"
         inkscape:connector-curvature="0"
         style="fill:url(#radialGradient7564)" />
      <path
         d="m 3024.1152,1419.3704 c -3.6314,0.052 -7.2775,0.2467 -10.958,0.5886 -56.6712,5.2653 -103.0359,44.0552 -122.1523,95.7123 11.5988,74.8896 77.2318,128.5131 151.8235,121.5829 56.6695,-5.2651 103.0349,-44.0281 122.1523,-95.6829 -11.0144,-71.2096 -70.8894,-123.1989 -140.8655,-122.2009 z"
         id="path83"
         inkscape:connector-curvature="0"
         style="fill:url(#linearGradient7566)" />
    </g>
    <g
       transform="matrix(-0.52166,0.02573,0.00181,-0.57358,6728.3139,2619.6766)"
       id="g85">
      <path
         d="m 1657.5742,909.1936 c 0,68.52718 -59.8255,124.0794 -133.624,124.0794 -73.7985,0 -133.624,-55.55222 -133.624,-124.0794 0,-68.52718 59.8255,-124.07943 133.624,-124.07943 73.7985,0 133.624,55.55225 133.624,124.07943 z"
         transform="matrix(2.52564,0,0,2.52564,-1216.9303,-649.94357)"
         id="path87"
         inkscape:connector-curvature="0"
         style="fill:#ff6600" />
      <path
         d="m 1657.5742,909.1936 c 0,68.52718 -59.8255,124.0794 -133.624,124.0794 -73.7985,0 -133.624,-55.55222 -133.624,-124.0794 0,-68.52718 59.8255,-124.07943 133.624,-124.07943 73.7985,0 133.624,55.55225 133.624,124.07943 z"
         transform="matrix(2.52564,0,0,2.52564,-1216.9303,-649.94357)"
         id="path89"
         inkscape:connector-curvature="0"
         style="fill:url(#radialGradient3291)" />
      <path
         d="m 1657.5742,909.1936 c 0,68.52718 -59.8255,124.0794 -133.624,124.0794 -73.7985,0 -133.624,-55.55222 -133.624,-124.0794 0,-68.52718 59.8255,-124.07943 133.624,-124.07943 73.7985,0 133.624,55.55225 133.624,124.07943 z"
         transform="matrix(2.52564,0,0,2.52564,-1216.9303,-649.94357)"
         id="path91"
         inkscape:connector-curvature="0"
         style="opacity:0.55;fill:url(#linearGradient3293)" />
      <path
         d="m 2630.0201,1350.9852 c -163.2681,2.0635 -294.9845,134.7957 -294.9845,298.2069 0,16.5307 1.3652,32.7326 3.9572,48.5315 54.5812,58.7469 132.5783,95.5463 219.1905,95.5463 165.0483,0 298.8308,-133.5388 298.8308,-298.2366 0,-16.5203 -1.3405,-32.7123 -3.9294,-48.5018 -54.5827,-58.7643 -132.5914,-95.5463 -219.2182,-95.5463 -1.2895,0 -2.561,-0.017 -3.8464,0 z"
         id="path93"
         inkscape:connector-curvature="0"
         style="opacity:0.55;fill:url(#linearGradient3295)" />
    </g>
    <g
       transform="translate(778.38839,-1471.2891)"
       id="g95">
      <path
         d="m 1657.5742,909.1936 c 0,68.52718 -59.8255,124.0794 -133.624,124.0794 -73.7985,0 -133.624,-55.55222 -133.624,-124.0794 0,-68.52718 59.8255,-124.07943 133.624,-124.07943 73.7985,0 133.624,55.55225 133.624,124.07943 z"
         transform="matrix(1.54021,0,0,1.54021,970.96073,1191.1927)"
         id="path97"
         inkscape:connector-curvature="0"
         style="fill:#008080" />
      <path
         d="m 1657.5742,909.1936 c 0,68.52718 -59.8255,124.0794 -133.624,124.0794 -73.7985,0 -133.624,-55.55222 -133.624,-124.0794 0,-68.52718 59.8255,-124.07943 133.624,-124.07943 73.7985,0 133.624,55.55225 133.624,124.07943 z"
         transform="matrix(1.54021,0,0,1.54021,970.96073,1191.1927)"
         id="path99"
         inkscape:connector-curvature="0"
         style="fill:url(#radialGradient7574)" />
      <path
         d="m 3324.0705,2422.9401 c -104.5095,0 -189.2346,73.14 -189.2346,163.3779 0,29.0382 8.7816,56.3075 24.1643,79.9388 27.8611,13.94 60.2431,21.9085 94.761,21.9085 104.5096,0 189.2347,-73.1666 189.2347,-163.4046 0,-29.0174 -8.7735,-56.2658 -24.1356,-79.8854 -27.8732,-13.9566 -60.2497,-21.9352 -94.7898,-21.9352 z"
         id="path101"
         inkscape:connector-curvature="0"
         style="fill:url(#linearGradient7576)" />
    </g>
    <g
       transform="translate(49.4929,-908.86968)"
       id="g103">
      <path
         d="m 4935.4958,2330.3786 366.7901,242.579 c 22.4175,50.6741 25.4134,93.171 -58.8207,98.9392 l -410.4353,-234.3181 z"
         id="path105"
         inkscape:connector-curvature="0" />
      <path
         d="m 4935.4958,2330.3786 366.7901,242.579 c 22.4175,50.6741 25.4134,93.171 -58.8207,98.9392 l -410.4353,-234.3181 z"
         id="path107"
         inkscape:connector-curvature="0"
         style="fill:url(#linearGradient7578)" />
    </g>
    <g
       transform="translate(1556.7768,-571.41806)"
       id="g109">
      <path
         d="m 3088.2618,1729.7805 173.8123,-18.9675 -85.18,-399.3721 c -39.2647,-31.3459 -76.1145,-33.7907 -108.4023,18.3639 z"
         id="path111"
         inkscape:connector-curvature="0" />
      <path
         d="m 3088.2618,1729.7805 173.8123,-18.9675 -85.18,-399.3721 c -39.2647,-31.3459 -76.1145,-33.7907 -108.4023,18.3639 z"
         id="path113"
         inkscape:connector-curvature="0"
         style="fill:url(#linearGradient7580)" />
      <path
         d="m 3127.0516,1326.8228 49.4929,350.9497"
         transform="matrix(0.99617,0,0,1.0436,16.57525,-69.99668)"
         id="path115"
         inkscape:connector-curvature="0"
         style="fill:none;stroke:#ffffff;stroke-width:20;filter:url(#filter6381)" />
    </g>
    <g
       transform="translate(1228.3239,-386.94452)"
       id="g117">
      <path
         d="m 3434.7742,1640.208 -59.9326,137.5406 -487.5494,-210.0591 c -12.0081,-65.0172 10.5842,-97.1372 74.286,-90.1712 z"
         id="path119"
         inkscape:connector-curvature="0" />
      <path
         d="m 3434.7742,1640.208 -59.9326,137.5406 -487.5494,-210.0591 c -12.0081,-65.0172 10.5842,-97.1372 74.286,-90.1712 z"
         id="path121"
         inkscape:connector-curvature="0"
         style="fill:url(#linearGradient7582)" />
    </g>
    <g
       transform="translate(2137.1935,-269.96129)"
       id="g123">
      <path
         d="m 1657.5742,909.1936 c 0,68.52718 -59.8255,124.0794 -133.624,124.0794 -73.7985,0 -133.624,-55.55222 -133.624,-124.0794 0,-68.52718 59.8255,-124.07943 133.624,-124.07943 73.7985,0 133.624,55.55225 133.624,124.07943 z"
         transform="matrix(2.52564,0,0,2.52564,-1216.9303,-649.94357)"
         id="path125"
         inkscape:connector-curvature="0"
         style="fill:#ff6600" />
      <path
         d="m 1657.5742,909.1936 c 0,68.52718 -59.8255,124.0794 -133.624,124.0794 -73.7985,0 -133.624,-55.55222 -133.624,-124.0794 0,-68.52718 59.8255,-124.07943 133.624,-124.07943 73.7985,0 133.624,55.55225 133.624,124.07943 z"
         transform="matrix(2.52564,0,0,2.52564,-1216.9303,-649.94357)"
         id="path127"
         inkscape:connector-curvature="0"
         style="fill:url(#radialGradient3297)" />
      <path
         d="m 1657.5742,909.1936 c 0,68.52718 -59.8255,124.0794 -133.624,124.0794 -73.7985,0 -133.624,-55.55222 -133.624,-124.0794 0,-68.52718 59.8255,-124.07943 133.624,-124.07943 73.7985,0 133.624,55.55225 133.624,124.07943 z"
         transform="matrix(2.52564,0,0,2.52564,-1216.9303,-649.94357)"
         id="path129"
         inkscape:connector-curvature="0"
         style="opacity:0.55;fill:url(#linearGradient3299)" />
      <path
         d="m 2630.0201,1350.9852 c -163.2681,2.0635 -294.9845,134.7957 -294.9845,298.2069 0,16.5307 1.3652,32.7326 3.9572,48.5315 54.5812,58.7469 132.5783,95.5463 219.1905,95.5463 165.0483,0 298.8308,-133.5388 298.8308,-298.2366 0,-16.5203 -1.3405,-32.7123 -3.9294,-48.5018 -54.5827,-58.7643 -132.5914,-95.5463 -219.2182,-95.5463 -1.2895,0 -2.561,-0.017 -3.8464,0 z"
         id="path131"
         inkscape:connector-curvature="0"
         style="opacity:0.55;fill:url(#linearGradient7572)" />
    </g>
    <g
       transform="translate(1363.3046,233.96645)"
       id="g133">
      <path
         d="m 3279.678,1183.3038 c 106.0486,-7.8416 88.7393,45.9958 93.0629,89.0166 l -274.6514,389.3339 -218.4955,-202.3106 z"
         id="path135"
         inkscape:connector-curvature="0"
         style="stroke:#000000;stroke-width:1.79857004" />
      <path
         d="m 3279.678,1183.3038 c 106.0486,-7.8416 88.7393,45.9958 93.0629,89.0166 l -274.6514,389.3339 -218.4955,-202.3106 z"
         id="path137"
         inkscape:connector-curvature="0"
         style="fill:url(#radialGradient7590);stroke:#000000;stroke-width:1.79857004" />
      <path
         d="m 3279.678,1183.3038 c 106.0486,-7.8416 88.7393,45.9958 93.0629,89.0166 l -274.6514,389.3339 -218.4955,-202.3106 z"
         id="path139"
         inkscape:connector-curvature="0"
         style="opacity:0.33000004;fill:url(#linearGradient7592);stroke:#000000;stroke-width:1.79857004" />
    </g>
    <path
       d="m 4647.4819,1408.2716 c 106.0486,-7.8416 88.7393,45.9958 93.0629,89.0166 l -274.6514,389.3339 -218.4955,-202.3106 z"
       id="path141"
       inkscape:connector-curvature="0"
       style="opacity:0.22000002;stroke:#000000;stroke-width:1.79857004" />
    <path
       d="m 1657.5742,909.1936 c 0,68.52718 -59.8255,124.0794 -133.624,124.0794 -73.7985,0 -133.624,-55.55222 -133.624,-124.0794 0,-68.52718 59.8255,-124.07943 133.624,-124.07943 73.7985,0 133.624,55.55225 133.624,124.07943 z"
       transform="matrix(2.79783,0,0,2.79783,-22.23999,-625.91707)"
       id="path143"
       inkscape:connector-curvature="0"
       style="fill:#808000" />
    <path
       d="m 1657.5742,909.1936 c 0,68.52718 -59.8255,124.0794 -133.624,124.0794 -73.7985,0 -133.624,-55.55222 -133.624,-124.0794 0,-68.52718 59.8255,-124.07943 133.624,-124.07943 73.7985,0 133.624,55.55225 133.624,124.07943 z"
       transform="matrix(2.79783,0,0,2.79783,-22.23999,-625.91707)"
       id="path145"
       inkscape:connector-curvature="0"
       style="fill:url(#radialGradient3301)" />
    <path
       d="m 1657.5742,909.1936 c 0,68.52718 -59.8255,124.0794 -133.624,124.0794 -73.7985,0 -133.624,-55.55222 -133.624,-124.0794 0,-68.52718 59.8255,-124.07943 133.624,-124.07943 73.7985,0 133.624,55.55225 133.624,124.07943 z"
       transform="matrix(2.79783,0,0,2.79783,-22.23999,-625.91707)"
       id="path147"
       inkscape:connector-curvature="0"
       style="fill:url(#radialGradient3303)" />
    <path
       d="m 4258.0965,1584.1874 c -105.6212,0 -200.2634,46.8704 -264.1353,120.875 -0.2073,4.9174 -0.3202,9.8443 -0.3202,14.8125 0,191.7276 155.9185,347.1563 348.2697,347.1563 105.6257,0 200.2924,-46.8651 264.1644,-120.875 0.2064,-4.9071 0.2911,-9.8549 0.2911,-14.8126 0,-191.7276 -155.9184,-347.1562 -348.2697,-347.1562 z"
       id="path149"
       inkscape:connector-curvature="0"
       style="fill:url(#linearGradient7598)" />
    <path
       d="m 4262.5959,1588.6867 c -105.6212,0 -200.2634,46.8704 -264.1353,120.875 -0.2073,4.9174 -0.3202,9.8443 -0.3202,14.8125 0,191.7276 155.9185,347.1563 348.2697,347.1563 105.6257,0 200.2924,-46.8651 264.1644,-120.875 0.2064,-4.9071 0.2911,-9.8549 0.2911,-14.8126 0,-191.7276 -155.9184,-347.1562 -348.2697,-347.1562 z"
       id="path151"
       inkscape:connector-curvature="0"
       style="fill:url(#linearGradient7600)" />
    <g
       transform="translate(-3.5522112e-7,-1511.7832)"
       id="g153">
      <path
         d="m 4845.4011,2776.1545 435.6394,-456.1631 115.5073,119.1739 -494.6504,400.2213 c -37.9646,2.3069 -66.6985,-6.6683 -56.4963,-63.2321 z"
         id="path155"
         inkscape:connector-curvature="0" />
      <path
         d="m 4845.4011,2776.1545 435.6394,-456.1631 115.5073,119.1739 -494.6504,400.2213 c -37.9646,2.3069 -66.6985,-6.6683 -56.4963,-63.2321 z"
         id="path157"
         inkscape:connector-curvature="0"
         style="fill:url(#linearGradient7602)" />
    </g>
    <g
       transform="translate(3082.0581,-778.38839)"
       id="g159">
      <path
         d="m 1657.5742,909.1936 c 0,68.52718 -59.8255,124.0794 -133.624,124.0794 -73.7985,0 -133.624,-55.55222 -133.624,-124.0794 0,-68.52718 59.8255,-124.07943 133.624,-124.07943 73.7985,0 133.624,55.55225 133.624,124.07943 z"
         transform="matrix(1.58396,0,0,1.58396,-139.49362,200.83702)"
         id="path161"
         inkscape:connector-curvature="0"
         style="fill:#808000" />
      <path
         d="m 1657.5742,909.1936 c 0,68.52718 -59.8255,124.0794 -133.624,124.0794 -73.7985,0 -133.624,-55.55222 -133.624,-124.0794 0,-68.52718 59.8255,-124.07943 133.624,-124.07943 73.7985,0 133.624,55.55225 133.624,124.07943 z"
         transform="matrix(1.58396,0,0,1.58396,-139.49362,200.83702)"
         id="path163"
         inkscape:connector-curvature="0"
         style="fill:url(#radialGradient7604)" />
      <path
         d="m 2274.7377,1462.4357 c -35.0942,0 -67.9346,9.3687 -96.0859,25.6701 -8.0128,20.4687 -12.4325,42.67 -12.4325,65.892 0,101.9011 84.5288,184.5029 188.7992,184.5029 35.0944,0 67.9347,-9.3687 96.0861,-25.6703 8.0128,-20.4686 12.4324,-42.6697 12.4324,-65.8917 0,-101.9012 -84.5289,-184.503 -188.7993,-184.503 z"
         id="path165"
         inkscape:connector-curvature="0"
         style="fill:url(#linearGradient7606)" />
    </g>
  </g>
  <g
     id="g3317"
     transform="translate(-995.52941,556.59145)">
    <circle
       sodipodi:ry="36"
       sodipodi:rx="36"
       sodipodi:cy="92"
       sodipodi:cx="343.99899"
       style="opacity:0.5;fill:#000000;fill-opacity:1;filter:url(#filter4292-6)"
       r="36"
       rx="8.0010004"
       cx="343.99899"
       cy="92"
       ry="8.0010004"
       id="circle4274"
       transform="matrix(-6.9064857,1.8505874,-1.8505874,-6.9064857,3822.1659,243.15312)"
       d="m 379.99899,92 c 0,19.88225 -16.11775,36 -36,36 -19.88225,0 -36,-16.11775 -36,-36 0,-19.882251 16.11775,-36 36,-36 19.88225,0 36,16.117749 36,36 z" />
    <circle
       transform="matrix(-6.9064857,1.8505874,-1.8505874,-6.9064857,3822.1659,210.97099)"
       id="circle3581_2_"
       ry="8.0010004"
       cy="92"
       cx="343.99899"
       rx="8.0010004"
       r="36"
       style="fill:url(#linearGradient3327);fill-opacity:1"
       sodipodi:cx="343.99899"
       sodipodi:cy="92"
       sodipodi:rx="36"
       sodipodi:ry="36"
       d="m 379.99899,92 c 0,19.88225 -16.11775,36 -36,36 -19.88225,0 -36,-16.11775 -36,-36 0,-19.882251 16.11775,-36 36,-36 19.88225,0 36,16.117749 36,36 z" />
    <circle
       sodipodi:ry="36"
       sodipodi:rx="36"
       sodipodi:cy="92"
       sodipodi:cx="343.99899"
       style="fill:url(#radialGradient3329);fill-opacity:1"
       r="36"
       rx="8.0010004"
       cx="343.99899"
       cy="92"
       ry="8.0010004"
       id="circle4383"
       transform="matrix(-5.1798647,1.3879403,-1.3879403,-5.1798647,3185.6466,211.2719)"
       d="m 379.99899,92 c 0,19.88225 -16.11775,36 -36,36 -19.88225,0 -36,-16.11775 -36,-36 0,-19.882251 16.11775,-36 36,-36 19.88225,0 36,16.117749 36,36 z" />
    <circle
       sodipodi:ry="36"
       sodipodi:rx="36"
       sodipodi:cy="92"
       sodipodi:cx="343.99899"
       style="opacity:0.8;fill:none;stroke:url(#linearGradient3331);stroke-width:6.75138187;stroke-miterlimit:4;stroke-opacity:1;stroke-dasharray:none;filter:url(#filter7317-5)"
       r="36"
       rx="8.0010004"
       cx="343.99899"
       cy="92"
       ry="8.0010004"
       id="circle4776"
       transform="matrix(-6.9064857,-1.8505874,-1.8505874,6.9064857,3822.1659,213.37775)"
       clip-path="url(#clipPath5163-8)"
       d="m 379.99899,92 c 0,19.88225 -16.11775,36 -36,36 -19.88225,0 -36,-16.11775 -36,-36 0,-19.882251 16.11775,-36 36,-36 19.88225,0 36,16.117749 36,36 z" />
    <path
       inkscape:connector-curvature="0"
       id="circle16776"
       d="m 1276.088,-11.908261 c -91.2823,0 -167.557,64.457631 -185.9412,150.276171 36.6447,34.16049 106.1761,57.21266 185.9412,57.21266 79.7653,0 149.2966,-23.05217 185.9412,-57.21266 -18.3841,-85.81854 -94.6589,-150.276171 -185.9412,-150.276171 z"
       style="opacity:0.8;fill:url(#linearGradient3333);fill-opacity:1" />
    <g
       transform="matrix(8.4149909,0,0,8.4149909,249.45869,-85.290408)"
       id="g6850">
      <path
         inkscape:connector-curvature="0"
         id="path4123"
         d="m 118.00003,15.999997 0,16 -16,0 0,8 16,0 0,16 8,0 0,-16 16,0 0,-8 -16,0 0,-16 -8,0 z"
         style="fill:none;stroke:url(#linearGradient3335);stroke-width:4;stroke-linecap:round;stroke-linejoin:round;stroke-miterlimit:4;stroke-opacity:1;filter:url(#filter5943-2)"
         sodipodi:nodetypes="ccccccccccccc" />
      <path
         inkscape:connector-curvature="0"
         style="fill:#ffffff;fill-opacity:1;fill-rule:evenodd;stroke:none"
         d="m 118.00003,15.999997 0,16 -16,0 0,8 16,0 0,16 8,0 0,-16 16,0 0,-8 -16,0 0,-16 -8,0 z"
         id="rect3232"
         sodipodi:nodetypes="ccccccccccccc" />
    </g>
  </g>
</svg>
